<svg width="66px" xmlns="http://www.w3.org/2000/svg" viewBox="0 0 48 48"><defs><style>.cls-1{fill:#2d4a60;}.cls-2{fill:#00cf66;}.cls-3{fill:#00b157;}.cls-4{fill:#f9a06f;}.cls-5{fill:#ffd188;}</style></defs><title>Student Male</title><g id="_11_-_20" data-name="11 - 20"><g id="Student_Male" data-name="Student Male"><path class="cls-1" d="M36.859,9.126l-.36-.841a7.073,7.073,0,0,0-6.086-4.273,8.7,8.7,0,0,0-7.769-2.036L17.737,3.115a9.045,9.045,0,0,0-6.256,5.22l-.34.791a9.069,9.069,0,0,0-.461,5.727l.72,2.87a1.016,1.016,0,0,0,.169.356L14.2,21.6a1,1,0,0,0,.8.4H34a1,1,0,0,0,.907-.58l1.63-3.52a1.1,1.1,0,0,0,.063-.177l.721-2.872A9.071,9.071,0,0,0,36.859,9.126Z" id="id_106" style="fill: rgb(86, 138, 220);"></path><path class="cls-2" d="M44.435,42.349l-.45-2.023a9.015,9.015,0,0,0-6.138-6.65l-8.553-2.632A1.007,1.007,0,0,0,29,31H19a1.007,1.007,0,0,0-.294.044l-8.553,2.632a9.015,9.015,0,0,0-6.138,6.65l-.45,2.023A3,3,0,0,0,6.493,46H41.507a3,3,0,0,0,2.928-3.651Z" id="id_107" style="fill: rgb(59, 108, 183);"></path><path class="cls-3" d="M29,31h0l1.9,2.532a9.085,9.085,0,0,1,1.546,3.248h0a2,2,0,0,1-1.719,2.473L24,40l-6.726-.747a2,2,0,0,1-1.719-2.473h0A9.085,9.085,0,0,1,17.1,33.532L19,31H29Z" id="id_108" style="fill: rgb(41, 75, 133);"></path><path class="cls-4" d="M19,31h0a11.047,11.047,0,0,0,2.561,7.073l.9,1.083a2,2,0,0,0,3.072,0l.9-1.083A11.047,11.047,0,0,0,29,31h0V26H19Z" id="id_109" style="fill: rgb(148, 176, 224);"></path><path class="cls-5" d="M33.531,17.636,32.308,18.86l-.52-2.077-.166-.685a8.4,8.4,0,0,0-1.152-2.586l-1.278-1.921a15.422,15.422,0,0,1-6.833,2.492l-2.762.3a4.168,4.168,0,0,0-3.313,2.4,4.238,4.238,0,0,0-.249.727l-.343,1.35-1.223-1.224a2.069,2.069,0,0,0-2.532-.364l-.014.009a3.117,3.117,0,0,0,1.692,5.733,2.921,2.921,0,0,0,.675-.083l.644,2.918a8.343,8.343,0,0,0,3.708,5.244L21.8,33.056a4.118,4.118,0,0,0,4.4,0l3.156-1.963a8.343,8.343,0,0,0,3.708-5.244l.644-2.918a2.921,2.921,0,0,0,.675.083,3.117,3.117,0,0,0,1.692-5.733l-.014-.009A2.069,2.069,0,0,0,33.531,17.636Z" id="id_110" style="fill: rgb(175, 206, 255);"></path></g></g></svg>