<svg xmlns="http://www.w3.org/2000/svg" viewBox="0 0 48 48"><defs><style>.cls-1{fill:#e67244;}.cls-2{fill:#00cf66;}.cls-3{fill:#f9a06f;}.cls-4{fill:#00b157;}.cls-5{fill:#ffd188;}</style></defs><title>Student Female</title><g id="_11_-_20" data-name="11 - 20"><g id="Student_Female" data-name="Student Female"><path class="cls-1" d="M38.781,29.375a12.14,12.14,0,0,1-2.636-6.59l.563-5.074.175-.741a12.752,12.752,0,0,0,.337-2.93A13.028,13.028,0,0,0,24.21,1h-.42A13.028,13.028,0,0,0,11.117,16.971l.175.74.563,5.074a12.14,12.14,0,0,1-2.636,6.59,1,1,0,0,0,.572,1.6l7.266,1.552c.13.033,3.537.049,6.943.049,3.261,0,6.522-.015,6.908-.045v0l7.3-1.56a1,1,0,0,0,.572-1.6Z" id="id_101" style="fill: rgb(86, 138, 220);"></path><path class="cls-2" d="M43.923,41.947l-.77-2.055a9.032,9.032,0,0,0-4.966-5.147l-8.8-3.668A1,1,0,0,0,29,31H19a1,1,0,0,0-.385.077l-8.8,3.668a9.032,9.032,0,0,0-4.966,5.147l-.77,2.055A3,3,0,0,0,6.886,46H41.114a3,3,0,0,0,2.809-4.053Z" id="id_102" style="fill: rgb(59, 108, 183);"></path><path class="cls-3" d="M29,28v4.46a16,16,0,0,1-4.686,11.314L24,44.088h0l-.314-.314A16,16,0,0,1,19,32.46V28Z" id="id_103" style="fill: rgb(106, 142, 204);"></path><path class="cls-4" d="M24,38a13.033,13.033,0,0,1-4.247-.714,16,16,0,0,0,3.933,6.488l.314.314.314-.314a15.987,15.987,0,0,0,3.933-6.49A12.975,12.975,0,0,1,24,38Z" id="id_104" style="fill: rgb(45, 80, 140);"></path><path class="cls-5" d="M34.385,16.783h0A10.509,10.509,0,0,1,29.3,13.117l-1.145-1.526h0a14.109,14.109,0,0,1-7.45,3.9l-7.089,1.289a3.116,3.116,0,0,0,0,6.231,2.921,2.921,0,0,0,.675-.083l.644,2.918a8.343,8.343,0,0,0,3.708,5.244L21.8,33.056a4.118,4.118,0,0,0,4.4,0l3.156-1.963a8.343,8.343,0,0,0,3.708-5.244l.644-2.918a2.921,2.921,0,0,0,.675.083,3.116,3.116,0,0,0,0-6.231Z" id="id_105" style="fill: rgb(175, 206, 255);"></path></g></g></svg>